<svg width="1920" height="240" viewBox="0 0 1920 240" xmlns="http://www.w3.org/2000/svg"><rect width="1920" height="240" fill="#ffffff"/><path d="M 0,240 C 0,240 0,60 0,60 C 73.98335932750007,69.1850960903011 147.96671865500014,78.37019218060219 214,76 C 280.03328134499986,73.62980781939781 338.1164847074995,59.704327367892354 398,59 C 457.8835152925005,58.295672632107646 519.5673425150017,70.8124983478284 582,77 C 644.4326574849983,83.1875016521716 707.6141452324936,83.0456792407941 782,75 C 856.3858547675064,66.9543207592059 941.9760765550238,51.00478468899522 992,49 C 1042.0239234449762,46.99521531100478 1056.4815485474107,58.93518200322502 1122,69 C 1187.5184514525893,79.06481799677498 1304.0977292553332,87.25448729810464 1376,79 C 1447.9022707446668,70.74551270189536 1475.1275344312564,46.04686880435644 1525,44 C 1574.8724655687436,41.95313119564356 1647.3921330196413,62.558037484469594 1717,69 C 1786.6078669803587,75.4419625155304 1853.3039334901794,67.7209812577652 1920,60 C 1920,60 1920,240 1920,240 Z" fill="#4338ca" opacity="0.15"/><path d="M 0,240 C 0,240 0,120 0,120 C 57.75997250786433,118.86881757381903 115.51994501572867,117.73763514763806 179,124 C 242.48005498427133,130.26236485236194 311.6801924449497,143.91827698326682 378,138 C 444.3198075550503,132.08172301673318 507.7592852044728,106.58925691929471 579,102 C 650.2407147955272,97.41074308070529 729.2826667371593,113.72469533955432 803,119 C 876.7173332628407,124.27530466044568 945.11004784689,118.51196172248804 992,113 C 1038.88995215311,107.48803827751196 1064.277141875281,102.22745777049354 1131,108 C 1197.722858124719,113.77254222950646 1305.7813846519866,130.5782071955378 1371,136 C 1436.2186153480134,141.4217928044622 1458.5973195167726,135.45971344735523 1506,130 C 1553.4026804832274,124.54028655264477 1625.8293372809221,119.58293901504138 1699,118 C 1772.1706627190779,116.41706098495862 1846.085331359539,118.20853049247931 1920,120 C 1920,120 1920,240 1920,240 Z" fill="#4338ca" opacity="0.3"/><path d="M 0,240 C 0,240 0,180 0,180 C 51.539586031880305,180.8905072827725 103.07917206376061,181.78101456554495 176,186 C 248.9208279362394,190.21898543445505 343.22289777683784,197.76644902059266 409,195 C 474.77710222316216,192.23355097940734 512.029236828888,179.15318935208438 561,180 C 609.970763171112,180.84681064791562 670.6601549076106,195.6207935710698 743,199 C 815.3398450923894,202.3792064289302 899.3301435406697,194.36363636363637 969,193 C 1038.6698564593303,191.63636363636363 1094.0192709297098,196.92466097438472 1146,195 C 1197.9807290702902,193.07533902561528 1246.59277274049,183.9377197388247 1314,183 C 1381.40722725951,182.0622802611753 1467.6096381083296,189.32446007031643 1540,184 C 1612.3903618916704,178.67553992968357 1670.9686748261915,160.76443997990958 1732,158 C 1793.0313251738085,155.23556002009042 1856.5156625869042,167.6177800100452 1920,180 C 1920,180 1920,240 1920,240 Z" fill="#4338ca" opacity="0.44999999999999996"/></svg>
